STARTFONT 2.1
FONT -FontForge-04b11-Book-R-Normal--16-150-75-75-P-123-ISO10646-1
SIZE 15 75 75
FONTBOUNDINGBOX 17 16 0 -4
COMMENT "Generated by fontforge, http://fontforge.sourceforge.net"
COMMENT "1999-2003 / yuji oshimoo / 04@dsg4.com / www.04.jp.org"
STARTPROPERTIES 39
FOUNDRY "FontForge"
FAMILY_NAME "04b11"
WEIGHT_NAME "Book"
SLANT "R"
SETWIDTH_NAME "Normal"
ADD_STYLE_NAME ""
PIXEL_SIZE 16
POINT_SIZE 150
RESOLUTION_X 75
RESOLUTION_Y 75
SPACING "P"
AVERAGE_WIDTH 123
CHARSET_REGISTRY "ISO10646"
CHARSET_ENCODING "1"
FONTNAME_REGISTRY ""
CHARSET_COLLECTIONS "ISO10646-1"
FONT_NAME "04b11"
FACE_NAME "04b11"
COPYRIGHT "1999-2003 / yuji oshimoo / 04@dsg4.com / www.04.jp.org"
FONT_VERSION "Macromedia Fonographer 4.1J 03.3.25"
FONT_ASCENT 12
FONT_DESCENT 4
UNDERLINE_POSITION -2
UNDERLINE_THICKNESS 1
X_HEIGHT 7
CAP_HEIGHT 9
RAW_ASCENT 750
RAW_DESCENT 250
NORM_SPACE 8
RELATIVE_WEIGHT 40
RELATIVE_SETWIDTH 50
SUPERSCRIPT_X 0
SUPERSCRIPT_Y 7
SUPERSCRIPT_SIZE 10
SUBSCRIPT_X 0
SUBSCRIPT_Y 2
SUBSCRIPT_SIZE 10
AVG_LOWERCASE_WIDTH 135
AVG_UPPERCASE_WIDTH 140
ENDPROPERTIES
CHARS 101
STARTCHAR space
ENCODING 32
SWIDTH 500 0
DWIDTH 8 0
BBX 1 1 0 0
BITMAP
00
ENDCHAR
STARTCHAR exclam
ENCODING 33
SWIDTH 375 0
DWIDTH 6 0
BBX 4 10 1 0
BITMAP
F0
F0
F0
F0
F0
F0
00
00
F0
F0
ENDCHAR
STARTCHAR quotedbl
ENCODING 34
SWIDTH 750 0
DWIDTH 12 0
BBX 10 4 1 6
BITMAP
F3C0
F3C0
F3C0
F3C0
ENDCHAR
STARTCHAR numbersign
ENCODING 35
SWIDTH 1000 0
DWIDTH 16 0
BBX 14 10 1 0
BITMAP
3CF0
3CF0
FFFC
FFFC
3CF0
3CF0
FFFC
FFFC
3CF0
3CF0
ENDCHAR
STARTCHAR dollar
ENCODING 36
SWIDTH 1000 0
DWIDTH 16 0
BBX 14 10 1 0
BITMAP
3FFC
3FFC
F3C0
F3C0
FFFC
FFFC
0F3C
0F3C
FFF0
FFF0
ENDCHAR
STARTCHAR percent
ENCODING 37
SWIDTH 875 0
DWIDTH 14 0
BBX 12 10 1 0
BITMAP
F0F0
F0F0
F3C0
F3C0
0F00
0F00
3CF0
3CF0
F0F0
F0F0
ENDCHAR
STARTCHAR ampersand
ENCODING 38
SWIDTH 875 0
DWIDTH 14 0
BBX 12 10 1 0
BITMAP
3F00
3F00
F3C0
F3C0
3F00
3F00
F3F0
F3F0
3FC0
3FC0
ENDCHAR
STARTCHAR quotesingle
ENCODING 39
SWIDTH 375 0
DWIDTH 6 0
BBX 4 4 1 6
BITMAP
F0
F0
F0
F0
ENDCHAR
STARTCHAR parenleft
ENCODING 40
SWIDTH 500 0
DWIDTH 8 0
BBX 6 10 1 0
BITMAP
3C
3C
F0
F0
F0
F0
F0
F0
3C
3C
ENDCHAR
STARTCHAR parenright
ENCODING 41
SWIDTH 500 0
DWIDTH 8 0
BBX 6 10 1 0
BITMAP
F0
F0
3C
3C
3C
3C
3C
3C
F0
F0
ENDCHAR
STARTCHAR asterisk
ENCODING 42
SWIDTH 750 0
DWIDTH 12 0
BBX 10 6 1 4
BITMAP
F3C0
F3C0
3F00
3F00
F3C0
F3C0
ENDCHAR
STARTCHAR plus
ENCODING 43
SWIDTH 875 0
DWIDTH 14 0
BBX 12 10 1 0
BITMAP
0F00
0F00
0F00
0F00
FFF0
FFF0
0F00
0F00
0F00
0F00
ENDCHAR
STARTCHAR comma
ENCODING 44
SWIDTH 375 0
DWIDTH 6 0
BBX 4 6 1 -2
BITMAP
F0
F0
F0
F0
F0
F0
ENDCHAR
STARTCHAR hyphen
ENCODING 45
SWIDTH 875 0
DWIDTH 14 0
BBX 12 2 1 4
BITMAP
FFF0
FFF0
ENDCHAR
STARTCHAR period
ENCODING 46
SWIDTH 375 0
DWIDTH 6 0
BBX 4 4 1 0
BITMAP
F0
F0
F0
F0
ENDCHAR
STARTCHAR slash
ENCODING 47
SWIDTH 875 0
DWIDTH 14 0
BBX 12 10 1 0
BITMAP
00F0
00F0
03C0
03C0
0F00
0F00
3C00
3C00
F000
F000
ENDCHAR
STARTCHAR zero
ENCODING 48
SWIDTH 875 0
DWIDTH 14 0
BBX 12 10 1 0
BITMAP
3FC0
3FC0
F0F0
F0F0
F0F0
F0F0
F0F0
F0F0
3FC0
3FC0
ENDCHAR
STARTCHAR one
ENCODING 49
SWIDTH 500 0
DWIDTH 8 0
BBX 6 10 1 0
BITMAP
FC
FC
3C
3C
3C
3C
3C
3C
3C
3C
ENDCHAR
STARTCHAR two
ENCODING 50
SWIDTH 875 0
DWIDTH 14 0
BBX 12 10 1 0
BITMAP
FFC0
FFC0
00F0
00F0
3FC0
3FC0
F000
F000
FFF0
FFF0
ENDCHAR
STARTCHAR three
ENCODING 51
SWIDTH 875 0
DWIDTH 14 0
BBX 12 10 1 0
BITMAP
FFC0
FFC0
00F0
00F0
3FC0
3FC0
00F0
00F0
FFC0
FFC0
ENDCHAR
STARTCHAR four
ENCODING 52
SWIDTH 875 0
DWIDTH 14 0
BBX 12 10 1 0
BITMAP
0FC0
0FC0
3FC0
3FC0
F3C0
F3C0
FFF0
FFF0
03C0
03C0
ENDCHAR
STARTCHAR five
ENCODING 53
SWIDTH 875 0
DWIDTH 14 0
BBX 12 10 1 0
BITMAP
FFF0
FFF0
F000
F000
FFC0
FFC0
00F0
00F0
FFC0
FFC0
ENDCHAR
STARTCHAR six
ENCODING 54
SWIDTH 875 0
DWIDTH 14 0
BBX 12 10 1 0
BITMAP
3FC0
3FC0
F000
F000
FFC0
FFC0
F0F0
F0F0
3FC0
3FC0
ENDCHAR
STARTCHAR seven
ENCODING 55
SWIDTH 875 0
DWIDTH 14 0
BBX 12 10 1 0
BITMAP
FFF0
FFF0
00F0
00F0
03C0
03C0
0F00
0F00
3C00
3C00
ENDCHAR
STARTCHAR eight
ENCODING 56
SWIDTH 875 0
DWIDTH 14 0
BBX 12 10 1 0
BITMAP
3FC0
3FC0
F0F0
F0F0
3FC0
3FC0
F0F0
F0F0
3FC0
3FC0
ENDCHAR
STARTCHAR nine
ENCODING 57
SWIDTH 875 0
DWIDTH 14 0
BBX 12 10 1 0
BITMAP
3FC0
3FC0
F0F0
F0F0
3FF0
3FF0
00F0
00F0
3FC0
3FC0
ENDCHAR
STARTCHAR colon
ENCODING 58
SWIDTH 375 0
DWIDTH 6 0
BBX 4 6 1 2
BITMAP
F0
F0
00
00
F0
F0
ENDCHAR
STARTCHAR semicolon
ENCODING 59
SWIDTH 375 0
DWIDTH 6 0
BBX 4 8 1 0
BITMAP
F0
F0
00
00
F0
F0
F0
F0
ENDCHAR
STARTCHAR less
ENCODING 60
SWIDTH 625 0
DWIDTH 10 0
BBX 8 10 1 0
BITMAP
0F
0F
3C
3C
F0
F0
3C
3C
0F
0F
ENDCHAR
STARTCHAR equal
ENCODING 61
SWIDTH 875 0
DWIDTH 14 0
BBX 12 6 1 2
BITMAP
FFF0
FFF0
0000
0000
FFF0
FFF0
ENDCHAR
STARTCHAR greater
ENCODING 62
SWIDTH 625 0
DWIDTH 10 0
BBX 8 10 1 0
BITMAP
F0
F0
3C
3C
0F
0F
3C
3C
F0
F0
ENDCHAR
STARTCHAR question
ENCODING 63
SWIDTH 875 0
DWIDTH 14 0
BBX 12 10 1 0
BITMAP
FFC0
FFC0
03F0
03F0
3FC0
3FC0
0000
0000
3C00
3C00
ENDCHAR
STARTCHAR at
ENCODING 64
SWIDTH 1000 0
DWIDTH 16 0
BBX 14 10 1 0
BITMAP
3FF0
3FF0
F03C
F03C
F3FC
F3FC
F33C
F33C
3FF0
3FF0
ENDCHAR
STARTCHAR A
ENCODING 65
SWIDTH 875 0
DWIDTH 14 0
BBX 12 10 1 0
BITMAP
3FC0
3FC0
F0F0
F0F0
FFF0
FFF0
F0F0
F0F0
F0F0
F0F0
ENDCHAR
STARTCHAR B
ENCODING 66
SWIDTH 875 0
DWIDTH 14 0
BBX 12 10 1 0
BITMAP
FFC0
FFC0
F0F0
F0F0
FFC0
FFC0
F0F0
F0F0
FFC0
FFC0
ENDCHAR
STARTCHAR C
ENCODING 67
SWIDTH 875 0
DWIDTH 14 0
BBX 12 10 1 0
BITMAP
3FC0
3FC0
F0F0
F0F0
F000
F000
F0F0
F0F0
3FC0
3FC0
ENDCHAR
STARTCHAR D
ENCODING 68
SWIDTH 875 0
DWIDTH 14 0
BBX 12 10 1 0
BITMAP
FFC0
FFC0
F0F0
F0F0
F0F0
F0F0
F0F0
F0F0
FFC0
FFC0
ENDCHAR
STARTCHAR E
ENCODING 69
SWIDTH 875 0
DWIDTH 14 0
BBX 12 10 1 0
BITMAP
FFF0
FFF0
F000
F000
FFC0
FFC0
F000
F000
FFF0
FFF0
ENDCHAR
STARTCHAR F
ENCODING 70
SWIDTH 875 0
DWIDTH 14 0
BBX 12 10 1 0
BITMAP
FFF0
FFF0
F000
F000
FFC0
FFC0
F000
F000
F000
F000
ENDCHAR
STARTCHAR G
ENCODING 71
SWIDTH 875 0
DWIDTH 14 0
BBX 12 10 1 0
BITMAP
3FF0
3FF0
F000
F000
F3F0
F3F0
F0F0
F0F0
3FF0
3FF0
ENDCHAR
STARTCHAR H
ENCODING 72
SWIDTH 875 0
DWIDTH 14 0
BBX 12 10 1 0
BITMAP
F0F0
F0F0
F0F0
F0F0
FFF0
FFF0
F0F0
F0F0
F0F0
F0F0
ENDCHAR
STARTCHAR I
ENCODING 73
SWIDTH 625 0
DWIDTH 10 0
BBX 8 10 1 0
BITMAP
FF
FF
3C
3C
3C
3C
3C
3C
FF
FF
ENDCHAR
STARTCHAR J
ENCODING 74
SWIDTH 875 0
DWIDTH 14 0
BBX 12 10 1 0
BITMAP
0FF0
0FF0
00F0
00F0
00F0
00F0
F0F0
F0F0
3FC0
3FC0
ENDCHAR
STARTCHAR K
ENCODING 75
SWIDTH 875 0
DWIDTH 14 0
BBX 12 10 1 0
BITMAP
F0F0
F0F0
F3C0
F3C0
FF00
FF00
F3C0
F3C0
F0F0
F0F0
ENDCHAR
STARTCHAR L
ENCODING 76
SWIDTH 875 0
DWIDTH 14 0
BBX 12 10 1 0
BITMAP
F000
F000
F000
F000
F000
F000
F000
F000
FFF0
FFF0
ENDCHAR
STARTCHAR M
ENCODING 77
SWIDTH 1000 0
DWIDTH 16 0
BBX 14 10 1 0
BITMAP
F03C
F03C
FCFC
FCFC
FFFC
FFFC
F33C
F33C
F03C
F03C
ENDCHAR
STARTCHAR N
ENCODING 78
SWIDTH 875 0
DWIDTH 14 0
BBX 12 10 1 0
BITMAP
F0F0
F0F0
FCF0
FCF0
FFF0
FFF0
F3F0
F3F0
F0F0
F0F0
ENDCHAR
STARTCHAR O
ENCODING 79
SWIDTH 875 0
DWIDTH 14 0
BBX 12 10 1 0
BITMAP
3FC0
3FC0
F0F0
F0F0
F0F0
F0F0
F0F0
F0F0
3FC0
3FC0
ENDCHAR
STARTCHAR P
ENCODING 80
SWIDTH 875 0
DWIDTH 14 0
BBX 12 10 1 0
BITMAP
FFC0
FFC0
F0F0
F0F0
F0F0
F0F0
FFC0
FFC0
F000
F000
ENDCHAR
STARTCHAR Q
ENCODING 81
SWIDTH 875 0
DWIDTH 14 0
BBX 12 12 1 -2
BITMAP
3FC0
3FC0
F0F0
F0F0
F0F0
F0F0
F0F0
F0F0
3FC0
3FC0
03C0
03C0
ENDCHAR
STARTCHAR R
ENCODING 82
SWIDTH 875 0
DWIDTH 14 0
BBX 12 10 1 0
BITMAP
FFC0
FFC0
F0F0
F0F0
F0F0
F0F0
FFC0
FFC0
F3F0
F3F0
ENDCHAR
STARTCHAR S
ENCODING 83
SWIDTH 875 0
DWIDTH 14 0
BBX 12 10 1 0
BITMAP
3FF0
3FF0
F000
F000
3FC0
3FC0
00F0
00F0
FFC0
FFC0
ENDCHAR
STARTCHAR T
ENCODING 84
SWIDTH 875 0
DWIDTH 14 0
BBX 12 10 1 0
BITMAP
FFF0
FFF0
0F00
0F00
0F00
0F00
0F00
0F00
0F00
0F00
ENDCHAR
STARTCHAR U
ENCODING 85
SWIDTH 875 0
DWIDTH 14 0
BBX 12 10 1 0
BITMAP
F0F0
F0F0
F0F0
F0F0
F0F0
F0F0
F0F0
F0F0
3FC0
3FC0
ENDCHAR
STARTCHAR V
ENCODING 86
SWIDTH 875 0
DWIDTH 14 0
BBX 12 10 1 0
BITMAP
F0F0
F0F0
F0F0
F0F0
3FC0
3FC0
3FC0
3FC0
0F00
0F00
ENDCHAR
STARTCHAR W
ENCODING 87
SWIDTH 1125 0
DWIDTH 18 0
BBX 16 10 1 0
BITMAP
F3CF
F3CF
F3CF
F3CF
F3CF
F3CF
FFFF
FFFF
3C3C
3C3C
ENDCHAR
STARTCHAR X
ENCODING 88
SWIDTH 875 0
DWIDTH 14 0
BBX 12 10 1 0
BITMAP
F0F0
F0F0
3FC0
3FC0
0F00
0F00
3FC0
3FC0
F0F0
F0F0
ENDCHAR
STARTCHAR Y
ENCODING 89
SWIDTH 875 0
DWIDTH 14 0
BBX 12 10 1 0
BITMAP
F0F0
F0F0
F0F0
F0F0
3FC0
3FC0
0F00
0F00
0F00
0F00
ENDCHAR
STARTCHAR Z
ENCODING 90
SWIDTH 875 0
DWIDTH 14 0
BBX 12 10 1 0
BITMAP
FFF0
FFF0
03C0
03C0
0F00
0F00
3C00
3C00
FFF0
FFF0
ENDCHAR
STARTCHAR bracketleft
ENCODING 91
SWIDTH 500 0
DWIDTH 8 0
BBX 6 10 1 0
BITMAP
FC
FC
F0
F0
F0
F0
F0
F0
FC
FC
ENDCHAR
STARTCHAR backslash
ENCODING 92
SWIDTH 875 0
DWIDTH 14 0
BBX 12 10 1 0
BITMAP
F000
F000
3C00
3C00
0F00
0F00
03C0
03C0
00F0
00F0
ENDCHAR
STARTCHAR bracketright
ENCODING 93
SWIDTH 500 0
DWIDTH 8 0
BBX 6 10 1 0
BITMAP
FC
FC
3C
3C
3C
3C
3C
3C
FC
FC
ENDCHAR
STARTCHAR asciicircum
ENCODING 94
SWIDTH 625 0
DWIDTH 10 0
BBX 8 4 1 6
BITMAP
3C
3C
FF
FF
ENDCHAR
STARTCHAR underscore
ENCODING 95
SWIDTH 875 0
DWIDTH 14 0
BBX 12 2 1 0
BITMAP
FFF0
FFF0
ENDCHAR
STARTCHAR grave
ENCODING 96
SWIDTH 500 0
DWIDTH 8 0
BBX 1 1 0 0
BITMAP
00
ENDCHAR
STARTCHAR a
ENCODING 97
SWIDTH 875 0
DWIDTH 14 0
BBX 12 8 1 0
BITMAP
3FF0
3FF0
F0F0
F0F0
F0F0
F0F0
3FF0
3FF0
ENDCHAR
STARTCHAR b
ENCODING 98
SWIDTH 875 0
DWIDTH 14 0
BBX 12 10 1 0
BITMAP
F000
F000
FFC0
FFC0
F0F0
F0F0
F0F0
F0F0
FFC0
FFC0
ENDCHAR
STARTCHAR c
ENCODING 99
SWIDTH 875 0
DWIDTH 14 0
BBX 12 8 1 0
BITMAP
3FF0
3FF0
F000
F000
F000
F000
3FF0
3FF0
ENDCHAR
STARTCHAR d
ENCODING 100
SWIDTH 875 0
DWIDTH 14 0
BBX 12 10 1 0
BITMAP
00F0
00F0
3FF0
3FF0
F0F0
F0F0
F0F0
F0F0
3FF0
3FF0
ENDCHAR
STARTCHAR e
ENCODING 101
SWIDTH 875 0
DWIDTH 14 0
BBX 12 8 1 0
BITMAP
3FC0
3FC0
F3F0
F3F0
FC00
FC00
3FC0
3FC0
ENDCHAR
STARTCHAR f
ENCODING 102
SWIDTH 875 0
DWIDTH 14 0
BBX 12 10 1 0
BITMAP
0FF0
0FF0
3C00
3C00
FFF0
FFF0
3C00
3C00
3C00
3C00
ENDCHAR
STARTCHAR g
ENCODING 103
SWIDTH 875 0
DWIDTH 14 0
BBX 12 12 1 -4
BITMAP
3FF0
3FF0
F0F0
F0F0
F0F0
F0F0
3FF0
3FF0
03C0
03C0
0F00
0F00
ENDCHAR
STARTCHAR h
ENCODING 104
SWIDTH 875 0
DWIDTH 14 0
BBX 12 10 1 0
BITMAP
F000
F000
FFC0
FFC0
F0F0
F0F0
F0F0
F0F0
F0F0
F0F0
ENDCHAR
STARTCHAR i
ENCODING 105
SWIDTH 375 0
DWIDTH 6 0
BBX 4 10 1 0
BITMAP
F0
F0
00
00
F0
F0
F0
F0
F0
F0
ENDCHAR
STARTCHAR j
ENCODING 106
SWIDTH 625 0
DWIDTH 10 0
BBX 8 14 1 -4
BITMAP
0F
0F
00
00
0F
0F
0F
0F
0F
0F
3C
3C
F0
F0
ENDCHAR
STARTCHAR k
ENCODING 107
SWIDTH 875 0
DWIDTH 14 0
BBX 12 10 1 0
BITMAP
F000
F000
F3F0
F3F0
FF00
FF00
F3C0
F3C0
F0F0
F0F0
ENDCHAR
STARTCHAR l
ENCODING 108
SWIDTH 375 0
DWIDTH 6 0
BBX 4 10 1 0
BITMAP
F0
F0
F0
F0
F0
F0
F0
F0
F0
F0
ENDCHAR
STARTCHAR m
ENCODING 109
SWIDTH 1125 0
DWIDTH 18 0
BBX 16 8 1 0
BITMAP
FFFC
FFFC
F3CF
F3CF
F3CF
F3CF
F3CF
F3CF
ENDCHAR
STARTCHAR n
ENCODING 110
SWIDTH 875 0
DWIDTH 14 0
BBX 12 8 1 0
BITMAP
FFC0
FFC0
F0F0
F0F0
F0F0
F0F0
F0F0
F0F0
ENDCHAR
STARTCHAR o
ENCODING 111
SWIDTH 875 0
DWIDTH 14 0
BBX 12 8 1 0
BITMAP
3FC0
3FC0
F0F0
F0F0
F0F0
F0F0
3FC0
3FC0
ENDCHAR
STARTCHAR p
ENCODING 112
SWIDTH 875 0
DWIDTH 14 0
BBX 12 10 1 -2
BITMAP
FFC0
FFC0
F0F0
F0F0
F0F0
F0F0
FFC0
FFC0
F000
F000
ENDCHAR
STARTCHAR q
ENCODING 113
SWIDTH 875 0
DWIDTH 14 0
BBX 12 10 1 -2
BITMAP
3FF0
3FF0
F0F0
F0F0
F0F0
F0F0
3FF0
3FF0
00F0
00F0
ENDCHAR
STARTCHAR r
ENCODING 114
SWIDTH 875 0
DWIDTH 14 0
BBX 12 8 1 0
BITMAP
F3F0
F3F0
FF00
FF00
F000
F000
F000
F000
ENDCHAR
STARTCHAR s
ENCODING 115
SWIDTH 875 0
DWIDTH 14 0
BBX 12 8 1 0
BITMAP
3FF0
3FF0
FF00
FF00
0FF0
0FF0
FFC0
FFC0
ENDCHAR
STARTCHAR t
ENCODING 116
SWIDTH 875 0
DWIDTH 14 0
BBX 12 10 1 0
BITMAP
3C00
3C00
FFF0
FFF0
3C00
3C00
3CF0
3CF0
0FC0
0FC0
ENDCHAR
STARTCHAR u
ENCODING 117
SWIDTH 875 0
DWIDTH 14 0
BBX 12 8 1 0
BITMAP
F0F0
F0F0
F0F0
F0F0
F0F0
F0F0
3FC0
3FC0
ENDCHAR
STARTCHAR v
ENCODING 118
SWIDTH 875 0
DWIDTH 14 0
BBX 12 8 1 0
BITMAP
F0F0
F0F0
F0F0
F0F0
3FC0
3FC0
0F00
0F00
ENDCHAR
STARTCHAR w
ENCODING 119
SWIDTH 1125 0
DWIDTH 18 0
BBX 16 8 1 0
BITMAP
F3CF
F3CF
F3CF
F3CF
F3CF
F3CF
FFFC
FFFC
ENDCHAR
STARTCHAR x
ENCODING 120
SWIDTH 875 0
DWIDTH 14 0
BBX 12 8 1 0
BITMAP
F0F0
F0F0
3FC0
3FC0
3FC0
3FC0
F0F0
F0F0
ENDCHAR
STARTCHAR y
ENCODING 121
SWIDTH 875 0
DWIDTH 14 0
BBX 12 12 1 -4
BITMAP
F0F0
F0F0
F0F0
F0F0
F0F0
F0F0
3FF0
3FF0
00F0
00F0
03C0
03C0
ENDCHAR
STARTCHAR z
ENCODING 122
SWIDTH 875 0
DWIDTH 14 0
BBX 12 8 1 0
BITMAP
FFF0
FFF0
0FC0
0FC0
3F00
3F00
FFF0
FFF0
ENDCHAR
STARTCHAR braceleft
ENCODING 123
SWIDTH 625 0
DWIDTH 10 0
BBX 8 10 1 0
BITMAP
3F
3F
3C
3C
F0
F0
3C
3C
3F
3F
ENDCHAR
STARTCHAR bar
ENCODING 124
SWIDTH 375 0
DWIDTH 6 0
BBX 4 10 1 0
BITMAP
F0
F0
F0
F0
F0
F0
F0
F0
F0
F0
ENDCHAR
STARTCHAR braceright
ENCODING 125
SWIDTH 625 0
DWIDTH 10 0
BBX 8 10 1 0
BITMAP
FC
FC
3C
3C
0F
0F
3C
3C
FC
FC
ENDCHAR
STARTCHAR asciitilde
ENCODING 126
SWIDTH 625 0
DWIDTH 10 0
BBX 8 4 1 6
BITMAP
3F
3F
FC
FC
ENDCHAR
STARTCHAR nonbreakingspace
ENCODING 160
SWIDTH 625 0
DWIDTH 10 0
BBX 1 1 0 0
BITMAP
00
ENDCHAR
STARTCHAR hyphen.dup1
ENCODING 8208
SWIDTH 875 0
DWIDTH 14 0
BBX 12 2 1 4
BITMAP
FFF0
FFF0
ENDCHAR
STARTCHAR .notdef
ENCODING -1
SWIDTH 500 0
DWIDTH 8 0
BBX 6 12 1 0
BITMAP
FC
FC
CC
CC
CC
CC
CC
CC
CC
CC
FC
FC
ENDCHAR
STARTCHAR .null
ENCODING -1
SWIDTH 0 0
DWIDTH 0 0
BBX 1 1 0 0
BITMAP
00
ENDCHAR
STARTCHAR nonmarkingreturn
ENCODING -1
SWIDTH 500 0
DWIDTH 8 0
BBX 1 1 0 0
BITMAP
00
ENDCHAR
STARTCHAR DEL
ENCODING -1
SWIDTH 500 0
DWIDTH 8 0
BBX 1 1 0 0
BITMAP
00
ENDCHAR
ENDFONT
